<?xml version="1.0" encoding="UTF-8"?>
<svg version="1.1" xmlns="http://www.w3.org/2000/svg" width="256" height="256">
<path d="M0 0 C3.19305763 1.71004902 4.15927819 3.36014416 5.89453125 6.5078125 C6.40628906 7.41789063 6.91804687 8.32796875 7.4453125 9.265625 C8.00798828 10.31363281 8.00798828 10.31363281 8.58203125 11.3828125 C12.43363333 10.85184766 13.70626475 9.34946286 16.01953125 6.3203125 C16.57511719 5.58683594 17.13070312 4.85335938 17.703125 4.09765625 C19.58203125 2.3828125 19.58203125 2.3828125 22.1171875 1.88671875 C24.58203125 2.3828125 24.58203125 2.3828125 26.2890625 4.0546875 C27.67794165 6.55550918 28.50822462 8.87760755 29.26953125 11.6328125 C29.64658203 12.97085937 29.64658203 12.97085937 30.03125 14.3359375 C30.30388672 15.34914063 30.30388672 15.34914063 30.58203125 16.3828125 C35.91081337 13.89567307 35.91081337 13.89567307 40.76953125 10.6328125 C43.17746213 8.97217051 44.71894433 9.00609054 47.58203125 9.3828125 C50.20654742 12.00732867 50.16531805 13.8705953 50.70703125 17.5078125 C50.87460938 18.60351562 51.0421875 19.69921875 51.21484375 20.828125 C51.33601562 21.67117187 51.4571875 22.51421875 51.58203125 23.3828125 C54.44013637 24.6841812 54.44013637 24.6841812 56.66796875 23.60546875 C57.42335937 23.22261719 58.17875 22.83976562 58.95703125 22.4453125 C62.30658304 20.87129548 64.81487282 19.6978746 68.58203125 20.3828125 C70.58203125 22.3828125 70.58203125 22.3828125 70.77734375 25.640625 C70.75414062 26.91679687 70.7309375 28.19296875 70.70703125 29.5078125 C70.68898437 30.78914063 70.6709375 32.07046875 70.65234375 33.390625 C70.62914062 34.37804688 70.6059375 35.36546875 70.58203125 36.3828125 C73.15902202 37.67130788 74.08384787 37.16040103 76.83203125 36.4453125 C80.50167835 35.56933222 83.78702426 35.09818698 87.58203125 35.3828125 C88.58203125 36.3828125 88.58203125 36.3828125 88.76953125 39.3828125 C88.73734381 43.2613989 87.89202531 46.82139751 86.921875 50.5625 C86.80972656 51.16320313 86.69757813 51.76390625 86.58203125 52.3828125 C87.71049406 53.74488256 87.71049406 53.74488256 90.671875 53.41015625 C93.23443858 53.35031974 95.79694148 53.28782496 98.359375 53.22265625 C101.58203125 53.3828125 101.58203125 53.3828125 103.58203125 55.3828125 C103.30392324 60.94497266 102.12769991 64.40718739 99.58203125 69.3828125 C99.91203125 70.3728125 100.24203125 71.3628125 100.58203125 72.3828125 C101.41347656 72.49238281 102.24492187 72.60195312 103.1015625 72.71484375 C104.73158203 72.95267578 104.73158203 72.95267578 106.39453125 73.1953125 C108.01294922 73.42154297 108.01294922 73.42154297 109.6640625 73.65234375 C112.65542467 74.40118542 113.81012874 74.90462717 115.58203125 77.3828125 C115.71522684 82.04465812 112.74424773 85.07180464 109.95703125 88.515625 C108.39172261 90.44056279 108.39172261 90.44056279 107.58203125 93.3828125 C108.59523437 93.67285156 108.59523437 93.67285156 109.62890625 93.96875 C110.5209375 94.22914062 111.41296875 94.48953125 112.33203125 94.7578125 C113.21375 95.01304688 114.09546875 95.26828125 115.00390625 95.53125 C117.34283697 96.3038059 119.41645687 97.21906926 121.58203125 98.3828125 C122.08203125 100.8828125 122.08203125 100.8828125 121.58203125 104.3828125 C119.2191822 107.39301746 116.58326473 110.00834264 113.58203125 112.3828125 C112.92203125 112.3828125 112.26203125 112.3828125 111.58203125 112.3828125 C114.35410619 115.40689425 116.63690444 117.5146526 120.33203125 119.3203125 C123.58203125 121.3828125 123.58203125 121.3828125 124.28515625 124.51171875 C124.383125 125.45917969 124.48109375 126.40664062 124.58203125 127.3828125 C122.96110995 128.55513935 121.33516292 129.7205202 119.70703125 130.8828125 C118.80210937 131.5325 117.8971875 132.1821875 116.96484375 132.8515625 C114.58203125 134.3828125 114.58203125 134.3828125 112.58203125 134.3828125 C112.95681636 137.10744074 113.37904304 138.19484456 115.4296875 140.09375 C116.52603516 140.91746094 116.52603516 140.91746094 117.64453125 141.7578125 C121.47928665 144.97183412 121.47928665 144.97183412 122.39453125 148.6328125 C121.58203125 151.3828125 121.58203125 151.3828125 119.58203125 153.0703125 C115.95558254 154.65688381 112.31176383 156.05528057 108.58203125 157.3828125 C109.35286592 161.7975929 111.8180236 164.58528565 114.5 168.06640625 C115.58203125 170.3828125 115.58203125 170.3828125 115.0625 173.0859375 C113.58203125 175.3828125 113.58203125 175.3828125 111.33984375 176.30859375 C110.03660156 176.50001953 110.03660156 176.50001953 108.70703125 176.6953125 C107.84335938 176.83582031 106.9796875 176.97632813 106.08984375 177.12109375 C103.58203125 177.3828125 103.58203125 177.3828125 99.58203125 177.3828125 C100.05779793 180.52287257 100.81792285 182.90177403 102.14453125 185.8203125 C103.57615327 189.36824534 103.94133557 191.61011714 103.58203125 195.3828125 C101.59986222 197.36498153 97.74883066 196.79332174 95.01953125 196.9453125 C91.33796875 197.161875 91.33796875 197.161875 87.58203125 197.3828125 C87.91203125 202.6628125 88.24203125 207.9428125 88.58203125 213.3828125 C83.52314204 215.40636818 82.41290138 215.51772053 77.39453125 214.5078125 C73.51308882 213.68803777 73.51308882 213.68803777 69.58203125 213.3828125 C69.741875 213.93839844 69.90171875 214.49398437 70.06640625 215.06640625 C70.62507123 217.57616635 70.78551873 219.87549583 70.83203125 222.4453125 C70.87070312 223.73115234 70.87070312 223.73115234 70.91015625 225.04296875 C70.58203125 227.3828125 70.58203125 227.3828125 69.37890625 229.25390625 C67.58203125 230.3828125 67.58203125 230.3828125 65.2578125 230.19921875 C62.38948186 229.32406385 59.57906494 228.36965641 56.76953125 227.3203125 C55.79371094 226.95808594 54.81789062 226.59585938 53.8125 226.22265625 C53.07644531 225.94550781 52.34039062 225.66835937 51.58203125 225.3828125 C51.46085938 226.37023437 51.3396875 227.35765625 51.21484375 228.375 C51.04726562 229.65632812 50.8796875 230.93765625 50.70703125 232.2578125 C50.54460937 233.53398437 50.3821875 234.81015625 50.21484375 236.125 C49.58203125 239.3828125 49.58203125 239.3828125 47.58203125 241.3828125 C42.21432406 241.3828125 39.30927312 238.89686176 35.4140625 235.5625 C34.80949219 235.17320312 34.20492187 234.78390625 33.58203125 234.3828125 C32.59203125 234.7128125 31.60203125 235.0428125 30.58203125 235.3828125 C29.20879911 238.4305019 28.15329003 241.5378212 27.05859375 244.6953125 C25.58203125 247.3828125 25.58203125 247.3828125 23.20703125 248.53515625 C20.58203125 248.3828125 20.58203125 248.3828125 18.23046875 246.51171875 C17.48023438 245.66480469 16.73 244.81789062 15.95703125 243.9453125 C13.75915727 241.42383175 13.75915727 241.42383175 11.58203125 239.3828125 C10.59203125 239.3828125 9.60203125 239.3828125 8.58203125 239.3828125 C6.68598296 242.15050384 5.11919266 245.04164392 3.49609375 247.9765625 C1.58203125 250.3828125 1.58203125 250.3828125 -0.9453125 250.96484375 C-4.09913562 250.22247464 -4.81824955 249.22957968 -6.60546875 246.5703125 C-7.09402344 245.86261719 -7.58257812 245.15492188 -8.0859375 244.42578125 C-8.52550781 243.75160156 -8.96507813 243.07742187 -9.41796875 242.3828125 C-10.07796875 241.3928125 -10.73796875 240.4028125 -11.41796875 239.3828125 C-14.98730419 239.93548379 -16.23307976 241.01376589 -18.35546875 243.8828125 C-20.31513392 246.28785612 -21.18813409 247.28660264 -24.10546875 248.5078125 C-26.41796875 248.3828125 -26.41796875 248.3828125 -27.92578125 247.19921875 C-29.73996153 244.99085794 -30.59970585 242.86578642 -31.60546875 240.1953125 C-31.94964844 239.29425781 -32.29382813 238.39320313 -32.6484375 237.46484375 C-32.90238281 236.77777344 -33.15632813 236.09070313 -33.41796875 235.3828125 C-37.851937 235.3828125 -38.17723449 235.69871142 -41.29296875 238.4453125 C-44.98586307 241.39824485 -44.98586307 241.39824485 -48.91796875 241.2578125 C-49.74296875 240.9690625 -50.56796875 240.6803125 -51.41796875 240.3828125 C-52.62262031 235.72482646 -53.70344287 231.14631835 -54.41796875 226.3828125 C-57.99560214 226.81910926 -60.67569733 227.5003729 -63.98046875 229.0078125 C-67.52155384 230.42424654 -68.87824009 230.56272205 -72.41796875 229.3828125 C-73.48592531 223.80570602 -73.24419546 218.98844292 -72.41796875 213.3828125 C-73.77229554 213.52715118 -75.126421 213.67337911 -76.48046875 213.8203125 C-77.29902344 213.90796875 -78.11757812 213.995625 -78.9609375 214.0859375 C-81.08154403 214.34216341 -83.18978401 214.69716682 -85.29296875 215.0703125 C-88.41796875 215.3828125 -88.41796875 215.3828125 -91.41796875 213.3828125 C-91.27412953 211.86178927 -91.12777861 210.34100353 -90.98046875 208.8203125 C-90.89925781 207.97339844 -90.81804687 207.12648437 -90.734375 206.25390625 C-90.37042034 202.95135469 -89.90146713 199.66978889 -89.41796875 196.3828125 C-90.56136719 196.39441406 -91.70476562 196.40601563 -92.8828125 196.41796875 C-94.37369629 196.42734538 -95.86458184 196.43644571 -97.35546875 196.4453125 C-98.11021484 196.45369141 -98.86496094 196.46207031 -99.64257812 196.47070312 C-101.56791188 196.47933691 -103.49332456 196.43505583 -105.41796875 196.3828125 C-106.41796875 195.3828125 -106.41796875 195.3828125 -106.73046875 192.8203125 C-106.37633585 188.92485057 -105.19811488 186.56869474 -103.29296875 183.21484375 C-102.20247931 181.27000848 -102.20247931 181.27000848 -102.41796875 178.3828125 C-103.91650391 178.07537109 -103.91650391 178.07537109 -105.4453125 177.76171875 C-107.38083984 177.35759766 -107.38083984 177.35759766 -109.35546875 176.9453125 C-110.64324219 176.67847656 -111.93101563 176.41164062 -113.2578125 176.13671875 C-116.41796875 175.3828125 -116.41796875 175.3828125 -117.41796875 174.3828125 C-117.97126849 171.14205689 -117.88457009 169.10379999 -116.078125 166.3125 C-114.98979478 164.92455887 -113.87437731 163.55734755 -112.73046875 162.21484375 C-111.12677608 160.35196649 -111.12677608 160.35196649 -111.41796875 157.3828125 C-112.69994141 156.85880859 -112.69994141 156.85880859 -114.0078125 156.32421875 C-115.11253906 155.86917969 -116.21726562 155.41414062 -117.35546875 154.9453125 C-119.00869141 154.26662109 -119.00869141 154.26662109 -120.6953125 153.57421875 C-123.41796875 152.3828125 -123.41796875 152.3828125 -124.41796875 151.3828125 C-124.76171875 149.11328125 -124.76171875 149.11328125 -124.41796875 146.3828125 C-122.44921875 143.99609375 -122.44921875 143.99609375 -119.91796875 141.6953125 C-118.38763695 140.29014673 -116.87978221 138.85912807 -115.41796875 137.3828125 C-115.41796875 136.7228125 -115.41796875 136.0628125 -115.41796875 135.3828125 C-118.18408338 133.57367328 -121.04086982 131.96494408 -123.9140625 130.33203125 C-126.41796875 128.3828125 -126.41796875 128.3828125 -127.265625 125.65234375 C-127.31589844 124.90339844 -127.36617188 124.15445313 -127.41796875 123.3828125 C-119.15600975 116.86345031 -119.15600975 116.86345031 -114.41796875 115.3828125 C-116.2084657 111.06677249 -119.08203583 109.10481195 -122.73828125 106.359375 C-124.41796875 104.3828125 -124.41796875 104.3828125 -124.66015625 101.15625 C-124.58023438 100.24101563 -124.5003125 99.32578125 -124.41796875 98.3828125 C-122.46147478 97.54516982 -120.50271319 96.71282191 -118.54296875 95.8828125 C-116.90714844 95.18671875 -116.90714844 95.18671875 -115.23828125 94.4765625 C-112.41796875 93.3828125 -112.41796875 93.3828125 -110.41796875 93.3828125 C-112.88413999 88.06911964 -112.88413999 88.06911964 -116.16796875 83.2578125 C-117.9269426 80.61935173 -117.62884782 78.47570549 -117.41796875 75.3828125 C-116.24234375 75.0940625 -115.06671875 74.8053125 -113.85546875 74.5078125 C-110.01607605 73.54967529 -106.21663695 72.49075739 -102.41796875 71.3828125 C-102.62292969 70.81433594 -102.82789062 70.24585937 -103.0390625 69.66015625 C-104.70139219 64.89587165 -106.10857193 60.43629387 -106.41796875 55.3828125 C-104.41796875 53.3828125 -104.41796875 53.3828125 -101.16015625 53.1875 C-99.24589844 53.22230469 -99.24589844 53.22230469 -97.29296875 53.2578125 C-95.37097656 53.28488281 -95.37097656 53.28488281 -93.41015625 53.3125 C-92.42273438 53.33570313 -91.4353125 53.35890625 -90.41796875 53.3828125 C-89.12507104 50.79701707 -89.64556382 49.83105389 -90.35546875 47.0703125 C-91.13601398 43.76759731 -91.83151682 40.79458409 -91.41796875 37.3828125 C-89.41796875 35.3828125 -89.41796875 35.3828125 -87.2109375 35.37109375 C-86.35113281 35.47808594 -85.49132812 35.58507813 -84.60546875 35.6953125 C-83.7134375 35.80230469 -82.82140625 35.90929688 -81.90234375 36.01953125 C-80.04403014 36.29126579 -78.19561515 36.63227242 -76.35546875 37.0078125 C-75.39640625 37.1934375 -75.39640625 37.1934375 -74.41796875 37.3828125 C-73.08600728 36.28426983 -73.08600728 36.28426983 -73.390625 33.546875 C-73.45039042 31.19263732 -73.51287854 28.83846715 -73.578125 26.484375 C-73.41796875 23.3828125 -73.41796875 23.3828125 -71.41796875 20.3828125 C-66.42654112 20.91381544 -62.05960396 22.06249966 -57.3359375 23.76171875 C-55.43685277 24.48550524 -55.43685277 24.48550524 -53.41796875 24.3828125 C-53.34449219 23.13564453 -53.34449219 23.13564453 -53.26953125 21.86328125 C-53.19476563 20.77660156 -53.12 19.68992187 -53.04296875 18.5703125 C-52.97335938 17.49136719 -52.90375 16.41242187 -52.83203125 15.30078125 C-52.41796875 12.3828125 -52.41796875 12.3828125 -50.41796875 9.3828125 C-45.02713377 9.71286362 -42.16448206 10.88627232 -37.99609375 14.32421875 C-36.31945079 15.6613474 -36.31945079 15.6613474 -33.41796875 15.3828125 C-32.89396484 14.10083984 -32.89396484 14.10083984 -32.359375 12.79296875 C-31.90433594 11.68824219 -31.44929688 10.58351563 -30.98046875 9.4453125 C-30.52800781 8.34316406 -30.07554688 7.24101562 -29.609375 6.10546875 C-28.41796875 3.3828125 -28.41796875 3.3828125 -27.41796875 2.3828125 C-25.1484375 2.0390625 -25.1484375 2.0390625 -22.41796875 2.3828125 C-20.03125 4.3515625 -20.03125 4.3515625 -17.73046875 6.8828125 C-16.32530298 8.4131443 -14.89428432 9.92099904 -13.41796875 11.3828125 C-12.75796875 11.3828125 -12.09796875 11.3828125 -11.41796875 11.3828125 C-10.18361814 9.61571151 -9.02870459 7.79261682 -7.91796875 5.9453125 C-3.75613055 -0.95875384 -3.75613055 -0.95875384 0 0 Z M-7.41796875 24.9453125 C-8.84932386 28.43424059 -8.35193475 30.78037222 -7.41796875 34.3828125 C-3.94872994 36.69563837 -2.495913 36.80759836 1.58203125 36.3828125 C3.66680763 34.94503569 4.39442303 33.78483011 5.45703125 31.5078125 C5.63768276 28.43673683 4.31283767 26.84588318 2.58203125 24.3828125 C1.41728063 23.00509488 1.41728063 23.00509488 -1.79296875 23.0703125 C-5.36154056 23.04581201 -5.36154056 23.04581201 -7.41796875 24.9453125 Z M-66.41796875 60.3828125 C-67.07796875 61.3728125 -67.73796875 62.3628125 -68.41796875 63.3828125 C-66.51902107 63.38828094 -66.51902107 63.38828094 -64.58171082 63.39385986 C-52.62075888 63.43088476 -40.66006261 63.48873949 -28.69930553 63.56671524 C-22.55091001 63.60613641 -16.40265657 63.63835134 -10.25415039 63.65380859 C-4.31470024 63.66901023 1.62435916 63.70351864 7.56363487 63.75112152 C9.82366212 63.76589907 12.08374517 63.77385142 14.34382057 63.77469635 C17.52235655 63.77707863 20.69982364 63.80426054 23.87817383 63.83691406 C25.26354088 63.82936852 25.26354088 63.82936852 26.67689514 63.82167053 C37.46567597 63.99189713 46.89198 67.78559889 54.58203125 75.3828125 C59.73235953 81.66646485 61.92765392 88.2945633 61.51953125 96.3828125 C60.16199602 106.7799353 52.28834379 113.11023253 44.58203125 119.3828125 C45.16210938 120.03636719 45.16210938 120.03636719 45.75390625 120.703125 C46.2746875 121.29867187 46.79546875 121.89421875 47.33203125 122.5078125 C47.8425 123.08789062 48.35296875 123.66796875 48.87890625 124.265625 C53.79404437 130.37572789 55.59533859 135.64249983 57.26171875 143.23828125 C58.33342618 146.59176131 58.33342618 146.59176131 61.42578125 148.3125 C64.40093527 149.32140124 66.13448886 149.70573743 69.20703125 149.3203125 C69.94179687 149.24683594 70.6765625 149.17335938 71.43359375 149.09765625 C74.41604875 148.10531213 75.67478882 146.88039188 77.58203125 144.3828125 C78.4902349 141.12922567 78.4902349 141.12922567 78.83203125 137.6328125 C78.9815625 136.46234375 79.13109375 135.291875 79.28515625 134.0859375 C79.43210938 132.74789062 79.43210938 132.74789062 79.58203125 131.3828125 C82.88203125 131.0528125 86.18203125 130.7228125 89.58203125 130.3828125 C89.58203125 125.4328125 89.58203125 120.4828125 89.58203125 115.3828125 C88.30585938 114.82851562 87.0296875 114.27421875 85.71484375 113.703125 C84.04546533 112.97159963 82.37620036 112.23981534 80.70703125 111.5078125 C79.86527344 111.14300781 79.02351562 110.77820313 78.15625 110.40234375 C77.35058594 110.04785156 76.54492188 109.69335938 75.71484375 109.328125 C74.97121582 109.00344238 74.22758789 108.67875977 73.46142578 108.34423828 C71.58203125 107.3828125 71.58203125 107.3828125 69.58203125 105.3828125 C68.67997948 98.18480754 71.7632032 93.08885224 74.9140625 86.87890625 C77.13621021 82.48976748 77.13621021 82.48976748 77.1171875 77.7265625 C75.15201228 74.72629499 73.11144977 71.82511211 70.89453125 69.0078125 C70.44174805 68.4305542 69.98896484 67.8532959 69.52246094 67.25854492 C56.79660828 51.2246037 38.8324031 39.51263517 18.58203125 35.3828125 C14.55056295 35.63525738 12.43464613 38.07044055 9.58203125 40.7578125 C7.92446226 42.30925665 6.25830683 43.85159923 4.58203125 45.3828125 C3.96328125 45.99382813 3.34453125 46.60484375 2.70703125 47.234375 C-0.6972396 49.07418315 -2.76683479 48.45229702 -6.41796875 47.3828125 C-8.79517126 45.6140775 -10.70647142 43.53205241 -12.66796875 41.3203125 C-14.5354814 39.26371419 -16.41954688 37.31987931 -18.41796875 35.3828125 C-36.15854935 35.3828125 -54.15378982 48.73936655 -66.41796875 60.3828125 Z M-95.79296875 92.0703125 C-97.56989132 94.26856564 -97.56989132 94.26856564 -97.91796875 96.8828125 C-97.24394099 100.25295129 -96.20918125 101.39958257 -93.41796875 103.3828125 C-90.41796875 104.1328125 -90.41796875 104.1328125 -87.41796875 103.3828125 C-84.84647485 101.3143238 -84.84647485 101.3143238 -83.41796875 98.3828125 C-83.48689294 95.48799642 -84.02935558 93.97595892 -85.60546875 91.5703125 C-89.22365695 89.1997754 -92.36723859 89.63624107 -95.79296875 92.0703125 Z M80.58203125 94.3828125 C79.83203125 97.3828125 79.83203125 97.3828125 80.58203125 100.3828125 C82.65051995 102.9543064 82.65051995 102.9543064 85.58203125 104.3828125 C88.47684733 104.31388831 89.98888483 103.77142567 92.39453125 102.1953125 C94.19175142 99.45218698 94.0397725 97.58700124 93.58203125 94.3828125 C91.59880132 91.5916 90.45217004 90.55684026 87.08203125 89.8828125 C83.71189246 90.55684026 82.56526118 91.5916 80.58203125 94.3828125 Z M-75.41796875 91.3828125 C-74.90234375 92.5790625 -74.38671875 93.7753125 -73.85546875 95.0078125 C-72.43764135 98.8406952 -71.94676938 101.42896418 -73.41796875 105.3828125 C-77.28517323 108.02313022 -81.5372675 110.00178171 -85.73046875 112.0703125 C-86.37564453 112.39064453 -87.02082031 112.71097656 -87.68554688 113.04101562 C-89.2621078 113.82345697 -90.8399116 114.6033932 -92.41796875 115.3828125 C-92.77486339 126.92240598 -92.06658616 137.12618853 -89.41796875 148.3828125 C-80.83796875 148.3828125 -72.25796875 148.3828125 -63.41796875 148.3828125 C-63.41796875 129.5728125 -63.41796875 110.7628125 -63.41796875 91.3828125 C-67.37796875 91.3828125 -71.33796875 91.3828125 -75.41796875 91.3828125 Z M-21.41796875 92.3828125 C-21.41796875 97.6628125 -21.41796875 102.9428125 -21.41796875 108.3828125 C-16.98825414 108.45198676 -12.56044122 108.51162378 -8.13061523 108.54760742 C-6.62631858 108.56261972 -5.12206514 108.58303603 -3.61791992 108.60913086 C-1.44569179 108.64585066 0.72595376 108.66261411 2.8984375 108.67578125 C4.85438843 108.69934692 4.85438843 108.69934692 6.84985352 108.72338867 C11.19374832 108.32699087 13.74541182 107.41922016 17.58203125 105.3828125 C19.84088193 102.57615159 19.84088193 102.57615159 19.64453125 99.4453125 C18.38782909 95.82305333 16.90473834 94.96086598 13.59274292 93.19226074 C10.33256584 91.87981767 7.13082476 91.88828109 3.6796875 91.9921875 C2.95712265 91.99784729 2.2345578 92.00350708 1.49009705 92.00933838 C-0.79246461 92.03152993 -3.07339073 92.08168701 -5.35546875 92.1328125 C-6.91338861 92.15290006 -8.47133335 92.17114686 -10.02929688 92.1875 C-13.82664055 92.22791877 -17.62049882 92.30622487 -21.41796875 92.3828125 Z M-21.41796875 134.3828125 C-21.41796875 139.3328125 -21.41796875 144.2828125 -21.41796875 149.3828125 C-13.82796875 149.3828125 -6.23796875 149.3828125 1.58203125 149.3828125 C1.58203125 159.2828125 1.58203125 169.1828125 1.58203125 179.3828125 C-23.16796875 179.3828125 -47.91796875 179.3828125 -73.41796875 179.3828125 C-71.43796875 182.0228125 -69.45796875 184.6628125 -67.41796875 187.3828125 C-65.00484375 186.8878125 -65.00484375 186.8878125 -62.54296875 186.3828125 C-58.66733549 185.6968154 -54.85122792 185.13675432 -50.91796875 184.9453125 C-49.726875 184.88537109 -49.726875 184.88537109 -48.51171875 184.82421875 C-46.41796875 185.3828125 -46.41796875 185.3828125 -44.7421875 187.40625 C-43.43247287 190.35021031 -42.73389413 193.14919218 -42.14160156 196.30957031 C-41.01088832 202.65483571 -41.01088832 202.65483571 -37.9453125 208.17578125 C-35.77449901 209.34468082 -33.83270769 209.84973417 -31.41796875 210.3828125 C-29.53851563 210.90681641 -29.53851563 210.90681641 -27.62109375 211.44140625 C-6.68825786 217.14680285 13.30527824 216.4009962 33.58203125 208.3828125 C36.64830746 206.76813463 36.64830746 206.76813463 37.2421875 204.55102539 C37.37496094 203.8264917 37.50773437 203.10195801 37.64453125 202.35546875 C37.80179687 201.56333984 37.9590625 200.77121094 38.12109375 199.95507812 C38.27320313 199.12685547 38.4253125 198.29863281 38.58203125 197.4453125 C38.8839244 195.80920515 39.1960525 194.17494553 39.51953125 192.54296875 C39.65230469 191.81730713 39.78507812 191.09164551 39.921875 190.34399414 C40.71804117 187.97875642 41.61686585 186.90599283 43.58203125 185.3828125 C48.67733213 184.86288384 53.2339944 185.84088017 58.15234375 187.04296875 C61.14039185 187.46091117 62.75117742 187.50721706 65.58203125 186.3828125 C66.97047004 184.74330099 66.97047004 184.74330099 68.23876953 182.82055664 C68.68020294 182.17985733 69.12163635 181.53915802 69.57644653 180.87904358 C70.07421097 180.13840919 70.07421097 180.13840919 70.58203125 179.3828125 C69.43202637 179.3734668 68.28202148 179.36412109 67.09716797 179.35449219 C62.81406493 179.31449866 58.53167312 179.24871415 54.24902344 179.17529297 C52.39853072 179.14713752 50.54791896 179.12589604 48.69726562 179.11181641 C46.03063245 179.0903113 43.36542241 179.0436239 40.69921875 178.9921875 C39.87710907 178.99095886 39.05499939 178.98973022 38.20797729 178.98846436 C32.88414668 178.85393779 29.79492596 177.92197637 25.58203125 174.3828125 C20.63091603 168.93362011 19.33497303 162.29566345 18.01953125 155.2578125 C16.51946063 147.33871175 15.0860356 140.75568566 8.58203125 135.3828125 C5.28468479 134.28369701 2.8524438 134.2688669 -0.6171875 134.28515625 C-2.42993164 134.28999023 -2.42993164 134.28999023 -4.27929688 134.29492188 C-5.54193359 134.30330078 -6.80457031 134.31167969 -8.10546875 134.3203125 C-9.37970703 134.32482422 -10.65394531 134.32933594 -11.96679688 134.33398438 C-15.11720745 134.34578367 -18.26759394 134.36371932 -21.41796875 134.3828125 Z M-61.16796875 196.0078125 C-63.65801612 198.2197829 -63.65801612 198.2197829 -64.04296875 201.3828125 C-63.64776403 204.53708509 -63.64776403 204.53708509 -61.23046875 206.8203125 C-58.57149536 208.60810528 -58.57149536 208.60810528 -55.79296875 208.3203125 C-53.18332726 207.29019086 -51.95798518 206.73336389 -50.41796875 204.3828125 C-49.86610245 200.67742449 -49.92427634 199.05282363 -52.16796875 196.0078125 C-55.5818234 193.54225081 -57.63481301 193.92003866 -61.16796875 196.0078125 Z M47.58203125 197.3828125 C46.33364744 200.78810246 46.33364744 200.78810246 46.58203125 204.3828125 C47.99869792 206.96614583 47.99869792 206.96614583 50.58203125 208.3828125 C53.58203125 209.1328125 53.58203125 209.1328125 56.58203125 208.3828125 C59.15352515 206.3143238 59.15352515 206.3143238 60.58203125 203.3828125 C60.51190103 200.43734315 60.03029383 198.98049594 58.26953125 196.6328125 C54.15497535 193.58499332 51.46117993 194.0278731 47.58203125 197.3828125 Z " fill="#5B473A" transform="translate(129.41796875,1.6171875)"/>
<path d="M0 0 C3.19305763 1.71004902 4.15927819 3.36014416 5.89453125 6.5078125 C6.40628906 7.41789063 6.91804687 8.32796875 7.4453125 9.265625 C8.00798828 10.31363281 8.00798828 10.31363281 8.58203125 11.3828125 C12.43363333 10.85184766 13.70626475 9.34946286 16.01953125 6.3203125 C16.57511719 5.58683594 17.13070312 4.85335938 17.703125 4.09765625 C19.58203125 2.3828125 19.58203125 2.3828125 22.1171875 1.88671875 C24.58203125 2.3828125 24.58203125 2.3828125 26.2890625 4.0546875 C27.67794165 6.55550918 28.50822462 8.87760755 29.26953125 11.6328125 C29.64658203 12.97085937 29.64658203 12.97085937 30.03125 14.3359375 C30.30388672 15.34914063 30.30388672 15.34914063 30.58203125 16.3828125 C35.91081337 13.89567307 35.91081337 13.89567307 40.76953125 10.6328125 C43.17746213 8.97217051 44.71894433 9.00609054 47.58203125 9.3828125 C50.20654742 12.00732867 50.16531805 13.8705953 50.70703125 17.5078125 C50.87460938 18.60351562 51.0421875 19.69921875 51.21484375 20.828125 C51.33601562 21.67117187 51.4571875 22.51421875 51.58203125 23.3828125 C54.44013637 24.6841812 54.44013637 24.6841812 56.66796875 23.60546875 C57.42335937 23.22261719 58.17875 22.83976562 58.95703125 22.4453125 C62.30658304 20.87129548 64.81487282 19.6978746 68.58203125 20.3828125 C70.58203125 22.3828125 70.58203125 22.3828125 70.77734375 25.640625 C70.75414062 26.91679687 70.7309375 28.19296875 70.70703125 29.5078125 C70.68898437 30.78914063 70.6709375 32.07046875 70.65234375 33.390625 C70.62914062 34.37804688 70.6059375 35.36546875 70.58203125 36.3828125 C73.15902202 37.67130788 74.08384787 37.16040103 76.83203125 36.4453125 C80.50167835 35.56933222 83.78702426 35.09818698 87.58203125 35.3828125 C88.58203125 36.3828125 88.58203125 36.3828125 88.76953125 39.3828125 C88.73734381 43.2613989 87.89202531 46.82139751 86.921875 50.5625 C86.80972656 51.16320313 86.69757813 51.76390625 86.58203125 52.3828125 C87.71049406 53.74488256 87.71049406 53.74488256 90.671875 53.41015625 C93.23443858 53.35031974 95.79694148 53.28782496 98.359375 53.22265625 C101.58203125 53.3828125 101.58203125 53.3828125 103.58203125 55.3828125 C103.30392324 60.94497266 102.12769991 64.40718739 99.58203125 69.3828125 C99.91203125 70.3728125 100.24203125 71.3628125 100.58203125 72.3828125 C101.41347656 72.49238281 102.24492187 72.60195312 103.1015625 72.71484375 C104.73158203 72.95267578 104.73158203 72.95267578 106.39453125 73.1953125 C108.01294922 73.42154297 108.01294922 73.42154297 109.6640625 73.65234375 C112.65542467 74.40118542 113.81012874 74.90462717 115.58203125 77.3828125 C115.71522684 82.04465812 112.74424773 85.07180464 109.95703125 88.515625 C108.39172261 90.44056279 108.39172261 90.44056279 107.58203125 93.3828125 C108.59523437 93.67285156 108.59523437 93.67285156 109.62890625 93.96875 C110.5209375 94.22914062 111.41296875 94.48953125 112.33203125 94.7578125 C113.21375 95.01304688 114.09546875 95.26828125 115.00390625 95.53125 C117.34283697 96.3038059 119.41645687 97.21906926 121.58203125 98.3828125 C122.08203125 100.8828125 122.08203125 100.8828125 121.58203125 104.3828125 C119.32336591 107.56854198 116.91533366 110.32597539 113.58203125 112.3828125 C110.30859375 112.10546875 110.30859375 112.10546875 107.58203125 111.3828125 C107.59250488 112.00623535 107.60297852 112.6296582 107.61376953 113.27197266 C107.98924903 139.06598814 107.98924903 139.06598814 105.58203125 148.3828125 C104.92203125 149.0428125 104.26203125 149.7028125 103.58203125 150.3828125 C103.64261719 149.7937915 103.70320312 149.20477051 103.765625 148.59790039 C104.04241615 145.88082267 104.31225801 143.16309564 104.58203125 140.4453125 C104.67742187 139.51912109 104.7728125 138.59292969 104.87109375 137.63867188 C107.67752374 109.07322375 99.82310923 80.9232665 82.046875 58.28515625 C64.5917149 37.73177439 40.44592012 22.17391664 13.06445312 19.55932617 C-3.41101229 18.38783114 -18.57397942 19.22212067 -34.45556641 23.83154297 C-36.75535781 24.47759037 -39.06594771 24.96774996 -41.41796875 25.3828125 C-41.41796875 26.0428125 -41.41796875 26.7028125 -41.41796875 27.3828125 C-42.73046875 28.11197917 -44.04296875 28.84114583 -45.35546875 29.5703125 C-46.17917969 30.03050781 -47.00289063 30.49070312 -47.8515625 30.96484375 C-49.45989197 31.85346414 -51.07607205 32.72817611 -52.703125 33.58203125 C-70.49641039 43.02784942 -86.67904981 59.21376069 -95.41796875 77.3828125 C-95.7109082 77.98609375 -96.00384766 78.589375 -96.30566406 79.2109375 C-99.87420512 86.7084783 -102.53756995 94.3003966 -104.41796875 102.3828125 C-103.75796875 102.7128125 -103.09796875 103.0428125 -102.41796875 103.3828125 C-102.41796875 106.3828125 -102.41796875 106.3828125 -103.41796875 109.3828125 C-104.07796875 109.3828125 -104.73796875 109.3828125 -105.41796875 109.3828125 C-112.62289176 125.31629312 -106.75315683 147.5431141 -101.04296875 163.1953125 C-95.57618417 176.5382548 -86.23650842 197.47354266 -72.41796875 204.3828125 C-72.74796875 205.0428125 -73.07796875 205.7028125 -73.41796875 206.3828125 C-74.71651596 205.30773621 -76.00655236 204.22237514 -77.29296875 203.1328125 C-78.01226562 202.52953125 -78.7315625 201.92625 -79.47265625 201.3046875 C-81.38848993 199.41193616 -82.3824592 197.84623523 -83.41796875 195.3828125 C-84.07796875 195.3828125 -84.73796875 195.3828125 -85.41796875 195.3828125 C-85.41796875 196.0428125 -85.41796875 196.7028125 -85.41796875 197.3828125 C-88.73083395 197.24460981 -92.04314864 197.09597472 -95.35546875 196.9453125 C-96.30099609 196.90599609 -97.24652344 196.86667969 -98.22070312 196.82617188 C-99.11982422 196.78427734 -100.01894531 196.74238281 -100.9453125 196.69921875 C-102.19429321 196.64423218 -102.19429321 196.64423218 -103.46850586 196.58813477 C-105.41796875 196.3828125 -105.41796875 196.3828125 -106.41796875 195.3828125 C-107.02413999 190.41220835 -105.68074488 187.41832465 -103.29296875 183.21484375 C-102.20247931 181.27000848 -102.20247931 181.27000848 -102.41796875 178.3828125 C-103.91650391 178.07537109 -103.91650391 178.07537109 -105.4453125 177.76171875 C-107.38083984 177.35759766 -107.38083984 177.35759766 -109.35546875 176.9453125 C-110.64324219 176.67847656 -111.93101563 176.41164062 -113.2578125 176.13671875 C-116.41796875 175.3828125 -116.41796875 175.3828125 -117.41796875 174.3828125 C-117.97126849 171.14205689 -117.88457009 169.10379999 -116.078125 166.3125 C-114.98979478 164.92455887 -113.87437731 163.55734755 -112.73046875 162.21484375 C-111.12677608 160.35196649 -111.12677608 160.35196649 -111.41796875 157.3828125 C-112.69994141 156.85880859 -112.69994141 156.85880859 -114.0078125 156.32421875 C-115.11253906 155.86917969 -116.21726562 155.41414062 -117.35546875 154.9453125 C-119.00869141 154.26662109 -119.00869141 154.26662109 -120.6953125 153.57421875 C-123.41796875 152.3828125 -123.41796875 152.3828125 -124.41796875 151.3828125 C-124.76171875 149.11328125 -124.76171875 149.11328125 -124.41796875 146.3828125 C-122.44921875 143.99609375 -122.44921875 143.99609375 -119.91796875 141.6953125 C-118.38763695 140.29014673 -116.87978221 138.85912807 -115.41796875 137.3828125 C-115.41796875 136.7228125 -115.41796875 136.0628125 -115.41796875 135.3828125 C-118.18408338 133.57367328 -121.04086982 131.96494408 -123.9140625 130.33203125 C-126.41796875 128.3828125 -126.41796875 128.3828125 -127.265625 125.65234375 C-127.31589844 124.90339844 -127.36617188 124.15445313 -127.41796875 123.3828125 C-119.15600975 116.86345031 -119.15600975 116.86345031 -114.41796875 115.3828125 C-116.2084657 111.06677249 -119.08203583 109.10481195 -122.73828125 106.359375 C-124.41796875 104.3828125 -124.41796875 104.3828125 -124.66015625 101.15625 C-124.58023438 100.24101563 -124.5003125 99.32578125 -124.41796875 98.3828125 C-122.46147478 97.54516982 -120.50271319 96.71282191 -118.54296875 95.8828125 C-116.90714844 95.18671875 -116.90714844 95.18671875 -115.23828125 94.4765625 C-112.41796875 93.3828125 -112.41796875 93.3828125 -110.41796875 93.3828125 C-112.88413999 88.06911964 -112.88413999 88.06911964 -116.16796875 83.2578125 C-117.9269426 80.61935173 -117.62884782 78.47570549 -117.41796875 75.3828125 C-116.24234375 75.0940625 -115.06671875 74.8053125 -113.85546875 74.5078125 C-110.01607605 73.54967529 -106.21663695 72.49075739 -102.41796875 71.3828125 C-102.62292969 70.81433594 -102.82789062 70.24585937 -103.0390625 69.66015625 C-104.70139219 64.89587165 -106.10857193 60.43629387 -106.41796875 55.3828125 C-104.41796875 53.3828125 -104.41796875 53.3828125 -101.16015625 53.1875 C-99.24589844 53.22230469 -99.24589844 53.22230469 -97.29296875 53.2578125 C-95.37097656 53.28488281 -95.37097656 53.28488281 -93.41015625 53.3125 C-92.42273438 53.33570313 -91.4353125 53.35890625 -90.41796875 53.3828125 C-89.12507104 50.79701707 -89.64556382 49.83105389 -90.35546875 47.0703125 C-91.13601398 43.76759731 -91.83151682 40.79458409 -91.41796875 37.3828125 C-89.41796875 35.3828125 -89.41796875 35.3828125 -87.2109375 35.37109375 C-86.35113281 35.47808594 -85.49132812 35.58507813 -84.60546875 35.6953125 C-83.7134375 35.80230469 -82.82140625 35.90929688 -81.90234375 36.01953125 C-80.04403014 36.29126579 -78.19561515 36.63227242 -76.35546875 37.0078125 C-75.39640625 37.1934375 -75.39640625 37.1934375 -74.41796875 37.3828125 C-73.08600728 36.28426983 -73.08600728 36.28426983 -73.390625 33.546875 C-73.45039042 31.19263732 -73.51287854 28.83846715 -73.578125 26.484375 C-73.41796875 23.3828125 -73.41796875 23.3828125 -71.41796875 20.3828125 C-66.42654112 20.91381544 -62.05960396 22.06249966 -57.3359375 23.76171875 C-55.43685277 24.48550524 -55.43685277 24.48550524 -53.41796875 24.3828125 C-53.34449219 23.13564453 -53.34449219 23.13564453 -53.26953125 21.86328125 C-53.19476563 20.77660156 -53.12 19.68992187 -53.04296875 18.5703125 C-52.97335938 17.49136719 -52.90375 16.41242187 -52.83203125 15.30078125 C-52.41796875 12.3828125 -52.41796875 12.3828125 -50.41796875 9.3828125 C-45.02713377 9.71286362 -42.16448206 10.88627232 -37.99609375 14.32421875 C-36.31945079 15.6613474 -36.31945079 15.6613474 -33.41796875 15.3828125 C-32.89396484 14.10083984 -32.89396484 14.10083984 -32.359375 12.79296875 C-31.90433594 11.68824219 -31.44929688 10.58351563 -30.98046875 9.4453125 C-30.52800781 8.34316406 -30.07554688 7.24101562 -29.609375 6.10546875 C-28.41796875 3.3828125 -28.41796875 3.3828125 -27.41796875 2.3828125 C-25.1484375 2.0390625 -25.1484375 2.0390625 -22.41796875 2.3828125 C-20.03125 4.3515625 -20.03125 4.3515625 -17.73046875 6.8828125 C-16.32530298 8.4131443 -14.89428432 9.92099904 -13.41796875 11.3828125 C-12.75796875 11.3828125 -12.09796875 11.3828125 -11.41796875 11.3828125 C-10.18361814 9.61571151 -9.02870459 7.79261682 -7.91796875 5.9453125 C-3.75613055 -0.95875384 -3.75613055 -0.95875384 0 0 Z " fill="#76462C" transform="translate(129.41796875,1.6171875)"/>
<path d="M0 0 C0 0.33 0 0.66 0 1 C-0.95028076 0.97381592 -1.90056152 0.94763184 -2.87963867 0.9206543 C-20.4957504 0.47772116 -37.18253357 0.0989682 -54.18261719 5.44873047 C-56.42816791 6.12987683 -58.68906511 6.59949933 -61 7 C-61 7.66 -61 8.32 -61 9 C-62.96875 10.09375 -62.96875 10.09375 -64.9375 11.1875 C-65.76121094 11.64769531 -66.58492187 12.10789062 -67.43359375 12.58203125 C-69.04192322 13.47065164 -70.6581033 14.34536361 -72.28515625 15.19921875 C-81.96925351 20.34015927 -89.6205491 27.32744256 -97.25 35.125 C-98.02601562 35.91003906 -98.80203125 36.69507813 -99.6015625 37.50390625 C-101.09187622 39.01202235 -102.57841124 40.52388501 -104.06054688 42.04003906 C-105.60483354 43.60065504 -107.19375982 45.11706575 -108.796875 46.6171875 C-111.44222073 49.47828838 -113.2325423 52.56085158 -115 56 C-115.3403125 56.648479 -115.680625 57.29695801 -116.03125 57.96508789 C-119.19610434 64.12621412 -121.70714624 70.46316212 -124 77 C-125.36325401 73.96366153 -124.91437077 72.74987253 -123.8125 69.53125 C-123.22283689 68.18107267 -122.61772841 66.83756982 -122 65.5 C-121.67821777 64.78948486 -121.35643555 64.07896973 -121.02490234 63.34692383 C-111.45979296 42.61008381 -97.17745272 26.3093612 -78 14 C-77.21496094 13.45730469 -76.42992187 12.91460937 -75.62109375 12.35546875 C-65.15567962 5.45739578 -51.44067129 0.52977513 -39 -1 C-38.25621094 -1.10828125 -37.51242188 -1.2165625 -36.74609375 -1.328125 C-24.40605467 -2.87317108 -12.18978915 -2.33776778 0 0 Z " fill="#92502F" transform="translate(149,20)"/>
<path d="M0 0 C0.66 0 1.32 0 2 0 C3.4453125 1.50390625 3.4453125 1.50390625 5.125 3.5625 C7.70766661 6.65189234 10.33414533 9.14230344 13.5 11.625 C15.53515625 13.3359375 15.53515625 13.3359375 17 15 C16.9375 18.25 16.9375 18.25 16 21 C16.33 21.99 16.66 22.98 17 24 C15.68 24 14.36 24 13 24 C13 22.02 13 20.04 13 18 C11.35 17.67 9.7 17.34 8 17 C8 15.35 8 13.7 8 12 C7.01 12.33 6.02 12.66 5 13 C3.82739389 11.71372289 2.6620717 10.42080217 1.5 9.125 C0.8503125 8.40570313 0.200625 7.68640625 -0.46875 6.9453125 C-2 5 -2 5 -2 3 C-2.66 3 -3.32 3 -4 3 C-3.67 2.34 -3.34 1.68 -3 1 C-2.01 1.33 -1.02 1.66 0 2 C0 1.34 0 0.68 0 0 Z " fill="#5B4236" transform="translate(44,197)"/>
<path d="M0 0 C4.19810924 1.17156537 6.1576745 4.34212511 8.6875 7.75 C8.07003906 7.894375 7.45257813 8.03875 6.81640625 8.1875 C4.5703246 8.78096011 2.74679606 9.68713752 0.6875 10.75 C-2.44599732 11.79449911 -3.30218256 11.68423645 -6.3125 10.75 C-5.65970881 6.18046166 -4.79422402 1.55488346 0 0 Z " fill="#9A5B34" transform="translate(104.3125,3.25)"/>
<path d="M0 0 C6.4 0.49230769 6.4 0.49230769 9.4375 3.0625 C10.2109375 4.0215625 10.2109375 4.0215625 11 5 C10.27425781 5.26554687 9.54851562 5.53109375 8.80078125 5.8046875 C5.99829072 7.00072948 3.69520648 8.40329107 1.1875 10.125 C0.39730469 10.66382813 -0.39289063 11.20265625 -1.20703125 11.7578125 C-1.79871094 12.16773438 -2.39039062 12.57765625 -3 13 C-2.88557539 11.39504433 -2.75805306 9.79101881 -2.625 8.1875 C-2.55539063 7.29417969 -2.48578125 6.40085937 -2.4140625 5.48046875 C-2 3 -2 3 0 0 Z " fill="#9A5C35" transform="translate(79,11)"/>
<path d="M0 0 C0 4.12478501 -2.06217658 6.75315117 -4.125 10.1875 C-8.77536861 18.14326415 -12.04705022 26.29169319 -15 35 C-16.94271707 30.32351938 -14.55538033 26.54761604 -12.75292969 22.1496582 C-9.58868915 14.67193503 -5.78978841 5.78978841 0 0 Z M-17 35 C-16.67 35 -16.34 35 -16 35 C-16 36.65 -16 38.3 -16 40 C-15.34 40.33 -14.68 40.66 -14 41 C-14 44 -14 44 -15 47 C-15.66 47 -16.32 47 -17 47 C-17.66 48.65 -18.32 50.3 -19 52 C-20.30211046 48.09366863 -19.47812346 45.80461827 -18.5625 41.8125 C-18.27503906 40.54019531 -17.98757812 39.26789063 -17.69140625 37.95703125 C-17.46324219 36.98121094 -17.23507813 36.00539063 -17 35 Z " fill="#673C25" transform="translate(41,64)"/>
<path d="M0 0 C4.62 0 9.24 0 14 0 C13 5 13 5 11 7 C8.375 6.625 8.375 6.625 6 6 C6 4.35 6 2.7 6 1 C4.68 1.33 3.36 1.66 2 2 C2 2.99 2 3.98 2 5 C0.68 5.33 -0.64 5.66 -2 6 C-2 4.68 -2 3.36 -2 2 C-1.34 2 -0.68 2 0 2 C0 1.34 0 0.68 0 0 Z " fill="#4C443F" transform="translate(120,235)"/>
<path d="M0 0 C0.66 0.33 1.32 0.66 2 1 C1.23042969 1.55300781 1.23042969 1.55300781 0.4453125 2.1171875 C-9.24099499 9.45529924 -17.51708014 18.33682849 -26 27 C-26 21.49925154 -20.63314862 17.82590409 -17 14 C-16.40445313 13.35160156 -15.80890625 12.70320313 -15.1953125 12.03515625 C-10.66206525 7.25247195 -5.48135854 3.62850495 0 0 Z " fill="#713D24" transform="translate(69,37)"/>
<path d="M0 0 C2.5 1.375 2.5 1.375 3.8125 4 C4.1528125 5.175625 4.1528125 5.175625 4.5 6.375 C0.11414671 7.07673653 -4.05790643 7.48334375 -8.5 7.375 C-3.94 -0.985 -3.94 -0.985 0 0 Z " fill="#9A5D36" transform="translate(129.5,1.625)"/>
<path d="M0 0 C2.33944736 0.28730055 4.6739143 0.61936779 7 1 C7 4 7 4 5.46875 5.60546875 C4.8190625 6.12753906 4.169375 6.64960938 3.5 7.1875 C2.8503125 7.71730469 2.200625 8.24710938 1.53125 8.79296875 C1.0259375 9.19128906 0.520625 9.58960938 0 10 C-0.66 9.34 -1.32 8.68 -2 8 C-1.42307692 1.42307692 -1.42307692 1.42307692 0 0 Z " fill="#995F38" transform="translate(58,22)"/>
<path d="M0 0 C1.06347656 0.00322266 2.12695312 0.00644531 3.22265625 0.00976562 C4.86427734 0.02233398 4.86427734 0.02233398 6.5390625 0.03515625 C7.65667969 0.03966797 8.77429688 0.04417969 9.92578125 0.04882812 C12.67193054 0.06056381 15.41796836 0.07698262 18.1640625 0.09765625 C18.1640625 0.42765625 18.1640625 0.75765625 18.1640625 1.09765625 C12.4140625 2.22265625 12.4140625 2.22265625 10.1640625 1.09765625 C9.8340625 1.75765625 9.5040625 2.41765625 9.1640625 3.09765625 C9.1640625 2.43765625 9.1640625 1.77765625 9.1640625 1.09765625 C8.60976562 1.25363281 8.05546875 1.40960937 7.484375 1.5703125 C6.75992188 1.76496094 6.03546875 1.95960937 5.2890625 2.16015625 C4.56976563 2.35738281 3.85046875 2.55460937 3.109375 2.7578125 C1.1640625 3.09765625 1.1640625 3.09765625 -0.8359375 2.09765625 C-3.21376855 2.18604086 -5.58938896 2.34112046 -7.9609375 2.53515625 C-9.24226563 2.63699219 -10.52359375 2.73882813 -11.84375 2.84375 C-12.83117187 2.92753906 -13.81859375 3.01132812 -14.8359375 3.09765625 C-10.16679346 -0.01510645 -5.49945069 -0.02956694 0 0 Z " fill="#733D22" transform="translate(119.8359375,19.90234375)"/>
<path d="M0 0 C0.78375 0.04125 1.5675 0.0825 2.375 0.125 C2.705 0.785 3.035 1.445 3.375 2.125 C2.694375 2.74375 2.694375 2.74375 2 3.375 C0.31549626 5.18908095 -0.61765971 6.87785627 -1.625 9.125 C-2.285 9.125 -2.945 9.125 -3.625 9.125 C-4.25 5.75 -4.25 5.75 -4.625 2.125 C-2.625 0.125 -2.625 0.125 0 0 Z " fill="#935731" transform="translate(42.625,36.875)"/>
<path d="M0 0 C0.33 0 0.66 0 1 0 C1.33 5.61 1.66 11.22 2 17 C2.66 17.33 3.32 17.66 4 18 C3.34 20.97 2.68 23.94 2 27 C-0.26598448 23.60102327 -0.23742654 22.43680827 -0.1953125 18.45703125 C-0.18886719 17.38388672 -0.18242187 16.31074219 -0.17578125 15.20507812 C-0.15064453 13.52575195 -0.15064453 13.52575195 -0.125 11.8125 C-0.11597656 10.68134766 -0.10695313 9.55019531 -0.09765625 8.38476562 C-0.07406862 5.58963172 -0.041153 2.79492155 0 0 Z " fill="#5F3A27" transform="translate(21,117)"/>
<path d="M0 0 C0.33 0.99 0.66 1.98 1 3 C1.66 3.33 2.32 3.66 3 4 C-2.19209404 4.21192221 -6.126739 3.5912689 -11 2 C-7.36576791 -0.32590854 -4.22911669 -0.16265833 0 0 Z " fill="#534035" transform="translate(114,229)"/>
<path d="M0 0 C-0.33 2.31 -0.66 4.62 -1 7 C-3.375 7.625 -3.375 7.625 -6 8 C-6.66 7.34 -7.32 6.68 -8 6 C-6.85675161 4.9970458 -5.71032809 3.99770973 -4.5625 3 C-3.92441406 2.443125 -3.28632813 1.88625 -2.62890625 1.3125 C-1 0 -1 0 0 0 Z " fill="#6A4F3B" transform="translate(200,224)"/>
<path d="M0 0 C0.99 0.33 1.98 0.66 3 1 C1.515 2.485 1.515 2.485 0 4 C-0.99 3.67 -1.98 3.34 -3 3 C-2.01 2.01 -1.02 1.02 0 0 Z M-7.4375 4.9375 C-6.2309375 4.9684375 -6.2309375 4.9684375 -5 5 C-6.65 6.65 -8.3 8.3 -10 10 C-10.5625 8.0625 -10.5625 8.0625 -11 6 C-10 5 -10 5 -7.4375 4.9375 Z " fill="#8E4E2A" transform="translate(87,14)"/>
<path d="M0 0 C0 0.99 0 1.98 0 3 C-1.65 3.33 -3.3 3.66 -5 4 C-5 3.34 -5 2.68 -5 2 C-6.98 2.99 -8.96 3.98 -11 5 C-11.33 3.68 -11.66 2.36 -12 1 C-8.0186217 -0.3271261 -4.14954773 -0.06915913 0 0 Z " fill="#8D4F2B" transform="translate(135,8)"/>
<path d="M0 0 C2.97 0 5.94 0 9 0 C8.67 1.32 8.34 2.64 8 4 C5.6875 4.25 5.6875 4.25 3 4 C1.1875 2 1.1875 2 0 0 Z " fill="#745D47" transform="translate(123,248)"/>
<path d="M0 0 C0.66 0.33 1.32 0.66 2 1 C-6.92250923 9.08118081 -6.92250923 9.08118081 -11 11 C-11.66 10.67 -12.32 10.34 -13 10 C-12.01 9.67 -11.02 9.34 -10 9 C-10 8.34 -10 7.68 -10 7 C-8.35443434 5.96564444 -6.6829392 4.97236487 -5 4 C-3.31522656 2.68962066 -1.64351457 1.36176922 0 0 Z " fill="#553F34" transform="translate(196,207)"/>
<path d="M0 0 C-0.59167969 0.32613281 -1.18335937 0.65226562 -1.79296875 0.98828125 C-2.58316406 1.42527344 -3.37335938 1.86226562 -4.1875 2.3125 C-5.00863281 2.76496094 -5.82976562 3.21742187 -6.67578125 3.68359375 C-8.4452041 4.68577106 -10.17169942 5.76415179 -11.875 6.875 C-12.57625 7.24625 -13.2775 7.6175 -14 8 C-14.99 7.67 -15.98 7.34 -17 7 C-15.41779413 6.03980636 -13.83418669 5.08192202 -12.25 4.125 C-10.92742187 3.32449219 -10.92742187 3.32449219 -9.578125 2.5078125 C-8.72734375 2.01023437 -7.8765625 1.51265625 -7 1 C-6.29359375 0.58492187 -5.5871875 0.16984375 -4.859375 -0.2578125 C-3 -1 -3 -1 0 0 Z " fill="#753F23" transform="translate(88,29)"/>
<path d="M0 0 C0.66 0.33 1.32 0.66 2 1 C-0.39706568 3.90171108 -2.27097324 4.63619251 -6 5 C-8.3125 4.5625 -8.3125 4.5625 -10 4 C-10 3.01 -10 2.02 -10 1 C-7.98177083 1.03255208 -5.96354167 1.06510417 -3.9453125 1.09765625 C-1.91814596 1.12649242 -1.91814596 1.12649242 0 0 Z " fill="#8F4E2A" transform="translate(108,10)"/>
<path d="M0 0 C2.64 0.33 5.28 0.66 8 1 C8 1.66 8 2.32 8 3 C5.6875 3.6875 5.6875 3.6875 3 4 C1.1875 2.625 1.1875 2.625 0 1 C0 0.67 0 0.34 0 0 Z " fill="#776049" transform="translate(100,246)"/>
<path d="M0 0 C0.33 0 0.66 0 1 0 C1.66 2.64 2.32 5.28 3 8 C1.68 8 0.36 8 -1 8 C-1.04241723 5.66705225 -1.04092937 3.33297433 -1 1 C-0.67 0.67 -0.34 0.34 0 0 Z " fill="#554238" transform="translate(58,213)"/>
<path d="M0 0 C2.0625 0.4375 2.0625 0.4375 4 1 C1.03 3.475 1.03 3.475 -2 6 C-1.125 1.125 -1.125 1.125 0 0 Z " fill="#935730" transform="translate(25,55)"/>
<path d="M0 0 C0.99 0.33 1.98 0.66 3 1 C0.03 3.475 0.03 3.475 -3 6 C-3.66 5.01 -4.32 4.02 -5 3 C-2.6875 1.4375 -2.6875 1.4375 0 0 Z " fill="#914F2A" transform="translate(61,26)"/>
</svg>
